<svg width="512" height="512" xmlns="http://www.w3.org/2000/svg" class="svg-inline--fa fa-circle fa-w-16">

 <g>
  <title>background</title>
  <rect fill="none" id="canvas_background" height="402" width="582" y="-1" x="-1"/>
 </g>
 <g>
  <title>Layer 1</title>
  <path stroke="null" id="svg_1" d="m256,8c-137,0 -248,111 -248,248s111,248 248,248s248,-111 248,-248s-111,-248 -248,-248zm0,448c-110.5,0 -200,-89.5 -200,-200s89.5,-200 200,-200s200,89.5 200,200s-89.5,200 -200,200z" fill="currentColor"/>
  <path stroke="null" id="svg_2" d="m256.499984,53.000032c-112.969749,0 -204.499984,91.530235 -204.499984,204.499984s91.530235,204.499984 204.499984,204.499984s204.499984,-91.530235 204.499984,-204.499984s-91.530235,-204.499984 -204.499984,-204.499984zm0,369.419326c-91.117936,0 -164.919342,-73.801405 -164.919342,-164.919342s73.801405,-164.919342 164.919342,-164.919342s164.919342,73.801405 164.919342,164.919342s-73.801405,164.919342 -164.919342,164.919342z" fill="currentColor"/>
  <path stroke="null" id="svg_3" d="m257.999975,67.000041c-102.19757,0 -184.999975,82.802415 -184.999975,184.999984s82.802405,184.999975 184.999975,184.999975s184.999984,-82.802405 184.999984,-184.999975s-82.802415,-184.999984 -184.999984,-184.999984zm0,334.193513c-82.42942,0 -149.193529,-66.764109 -149.193529,-149.193529s66.764109,-149.193538 149.193529,-149.193538s149.193538,66.764109 149.193538,149.193538s-66.764109,149.193529 -149.193538,149.193529z" fill="currentColor"/>
 </g>
</svg>